<svg xmlns="http://www.w3.org/2000/svg"  viewBox="0 0 50 50" width="50px" height="50px"><path d="M 25 4 C 13.972 4 5 12.972 5 24 C 5 26.17 5.342625 28.280734 6.015625 30.302734 C 5.851625 30.267734 5.6927344 30.23875 5.5527344 30.21875 C 5.4197344 30.20075 5.2891094 30.191406 5.1621094 30.191406 C 4.1711094 30.191406 3.28125 30.706359 2.78125 31.568359 C 2.27425 32.440359 2.2743438 33.530063 2.7773438 34.414062 C 2.8143437 34.478063 2.8525781 34.541516 2.8925781 34.603516 C 2.6055781 34.822516 2.3599219 35.102641 2.1699219 35.431641 C 1.5859219 36.443641 1.6757031 37.642172 2.3457031 38.576172 C 1.9897031 39.056172 1.8164219 39.637328 1.8574219 40.236328 C 1.9074219 40.953328 2.2705625 41.646672 2.8515625 42.138672 C 3.3475625 42.557672 3.8857344 42.994266 4.5527344 43.322266 C 7.9577344 44.995266 11.557953 45.874594 15.251953 45.933594 L 15.341797 45.933594 L 15.431641 45.927734 C 15.647641 45.911734 15.864078 45.897766 16.080078 45.884766 C 16.587078 45.852766 17.111391 45.817859 17.650391 45.755859 C 18.862391 45.614859 20.360781 45.102547 21.550781 43.685547 C 22.683781 43.882547 23.839 44 25 44 C 26.099 44 27.201297 43.906516 28.279297 43.728516 C 29.462297 45.109516 30.941625 45.616859 32.140625 45.755859 C 32.679625 45.817859 33.203938 45.850812 33.710938 45.882812 C 33.926938 45.896813 34.143375 45.909781 34.359375 45.925781 L 34.449219 45.933594 L 34.539062 45.931641 C 38.233063 45.872641 41.833281 44.995266 45.238281 43.322266 C 45.905281 42.994266 46.444453 42.557672 46.939453 42.138672 C 47.521453 41.646672 47.883594 40.951375 47.933594 40.234375 C 47.974594 39.635375 47.802313 39.054219 47.445312 38.574219 C 48.115312 37.640219 48.206094 36.441688 47.621094 35.429688 C 47.431094 35.100687 47.185437 34.822516 46.898438 34.603516 C 46.938437 34.541516 46.977672 34.476109 47.013672 34.412109 C 47.516672 33.528109 47.514813 32.438406 47.007812 31.566406 C 46.506813 30.705406 45.617953 30.191406 44.626953 30.191406 C 44.499953 30.191406 44.369328 30.20075 44.236328 30.21875 C 44.162328 30.22875 44.077094 30.243813 43.996094 30.257812 C 44.660094 28.244812 45 26.14 45 24 C 45 12.972 36.028 4 25 4 z M 25 6 C 34.925 6 43 14.075 43 24 C 43 25.384 42.836344 26.748078 42.527344 28.080078 C 42.056344 27.637078 41.436859 27.376953 40.755859 27.376953 C 40.390859 27.376953 40.026781 27.451609 39.675781 27.599609 C 39.027781 27.872609 38.095234 28.333406 37.490234 29.191406 C 37.380234 29.347406 37.271109 29.503156 37.162109 29.660156 C 36.445109 28.494156 35.367719 28.286906 34.886719 28.253906 C 34.818719 28.248906 34.752547 28.246094 34.685547 28.246094 C 33.565547 28.246094 32.569437 28.897281 32.023438 29.988281 C 31.826438 30.382281 31.643938 30.782594 31.460938 31.183594 C 31.252938 31.637594 31.057703 32.064703 30.845703 32.470703 C 30.264703 33.581703 29.524484 34.582406 28.646484 35.441406 C 28.597484 35.489406 28.550906 35.537891 28.503906 35.587891 C 27.847906 36.300891 25.851953 38.47025 27.001953 41.53125 C 27.045953 41.64825 27.101437 41.741516 27.148438 41.853516 C 25.656437 42.031516 24.138344 42.025031 22.652344 41.832031 C 22.696344 41.728031 22.748063 41.64125 22.789062 41.53125 C 23.939062 38.47025 21.943109 36.300891 21.287109 35.587891 C 21.241109 35.537891 21.193531 35.488406 21.144531 35.441406 C 20.266531 34.581406 19.526312 33.583656 18.945312 32.472656 C 18.733313 32.066656 18.537078 31.637594 18.330078 31.183594 C 18.147078 30.782594 17.962625 30.382281 17.765625 29.988281 C 17.219625 28.897281 16.225469 28.246094 15.105469 28.246094 C 15.039469 28.246094 14.971344 28.248906 14.902344 28.253906 C 14.421344 28.286906 13.342953 28.497109 12.626953 29.662109 C 12.517953 29.505109 12.408828 29.349359 12.298828 29.193359 C 11.693828 28.334359 10.761281 27.871609 10.113281 27.599609 C 9.7622812 27.451609 9.3982031 27.376953 9.0332031 27.376953 C 8.4292031 27.376953 7.8815469 27.591313 7.4355469 27.945312 C 7.1485469 26.661313 7 25.344 7 24 C 7 14.075 15.075 6 25 6 z M 18.296875 15.28125 C 17.463438 15.328266 16.674109 15.780359 16.193359 16.537109 C 15.589359 17.488109 15.699031 18.779531 16.457031 19.644531 C 17.190031 20.481531 17.529687 20.469078 18.179688 19.580078 C 18.698687 18.872078 18.8925 18.812234 19.6875 19.115234 C 20.6385 19.478234 20.884016 19.334266 21.041016 18.322266 C 21.061016 18.191266 21.0605 18.058484 21.0625 18.021484 C 21.0655 16.724484 20.290766 15.700047 19.134766 15.373047 C 18.856516 15.294547 18.574687 15.265578 18.296875 15.28125 z M 31.503906 15.287109 C 30.867695 15.318418 30.247344 15.579922 29.777344 16.044922 C 29.043344 16.771922 28.809922 17.908469 29.169922 18.855469 C 29.330922 19.280469 29.574672 19.407672 30.013672 19.263672 C 31.303672 18.838672 31.305094 18.848203 32.121094 19.908203 C 32.141094 19.934203 32.161641 19.961281 32.181641 19.988281 C 32.424641 20.308281 32.702016 20.358 33.041016 20.125 C 33.822016 19.588 34.242047 18.860812 34.248047 18.382812 C 34.246047 16.818812 33.638672 15.903375 32.638672 15.484375 C 32.274172 15.332125 31.885633 15.268324 31.503906 15.287109 z M 12.5 20 A 1.5 1.5 0 0 0 12.5 23 A 1.5 1.5 0 0 0 12.5 20 z M 37.5 20 A 1.5 1.5 0 0 0 37.5 23 A 1.5 1.5 0 0 0 37.5 20 z M 18.726562 23.896484 C 18.32775 23.874969 18.149078 24.153281 18.173828 24.738281 C 18.326828 28.418281 20.840484 31.639094 25.021484 31.621094 C 29.205484 31.635094 31.714656 28.385391 31.847656 24.775391 C 31.878656 23.928391 31.566531 23.715156 30.769531 24.035156 C 30.169531 24.275156 29.584719 24.557422 29.011719 24.857422 C 26.487719 26.178422 23.947188 26.323531 21.367188 25.019531 C 20.656188 24.660531 19.937219 24.313578 19.199219 24.017578 C 19.016969 23.944328 18.8595 23.903656 18.726562 23.896484 z M 40.755859 29.376953 C 41.112859 29.376953 41.371828 29.673281 41.423828 30.113281 C 41.486828 30.644281 41.411547 31.154266 41.060547 31.572266 C 40.484547 32.259266 39.888109 32.931656 39.287109 33.597656 C 38.630109 34.325656 36.914062 36.060453 36.914062 36.314453 C 36.914062 36.634453 37.172188 36.894531 37.492188 36.894531 C 37.765188 36.894531 38.627922 36.00125 38.919922 35.78125 C 40.285922 34.75525 41.63125 33.703609 43.03125 32.724609 C 43.44725 32.433609 44.000719 32.270219 44.511719 32.199219 C 44.550719 32.194219 44.589953 32.191406 44.626953 32.191406 C 45.225953 32.191406 45.590391 32.869828 45.275391 33.423828 C 45.131391 33.676828 44.919547 33.915891 44.685547 34.087891 C 44.124547 34.499891 43.539219 34.880953 42.949219 35.251953 C 42.187219 35.732953 38.8995 37.840375 38.8125 37.984375 C 38.8035 37.991375 38.789062 38 38.789062 38 C 38.789062 38 38.794875 38.007766 38.796875 38.009766 C 38.753875 38.090766 38.722656 38.179344 38.722656 38.277344 C 38.722656 38.597344 38.982734 38.855469 39.302734 38.855469 C 39.407734 38.855469 39.500937 38.820484 39.585938 38.771484 C 39.591938 38.770484 39.597516 38.770578 39.603516 38.767578 C 40.494516 38.287578 41.349047 37.738391 42.248047 37.275391 C 43.071047 36.851391 43.921156 36.471672 44.785156 36.138672 C 44.930156 36.082672 45.085281 36.044922 45.238281 36.044922 C 45.486281 36.044922 45.725625 36.144687 45.890625 36.429688 C 46.117625 36.822688 46.017266 37.310922 45.572266 37.669922 C 45.227266 37.947922 44.8425 38.201 44.4375 38.375 C 43.4325 38.808 42.395672 39.170563 41.388672 39.601562 C 41.014672 39.761562 40.651375 39.995391 40.359375 40.275391 C 40.229375 40.400391 40.205969 40.763453 40.292969 40.939453 C 40.358969 41.072453 40.661234 41.140625 40.865234 41.140625 L 40.878906 41.140625 C 41.081906 41.137625 41.291422 41.025688 41.482422 40.929688 C 42.105422 40.616687 42.70975 40.262609 43.34375 39.974609 C 43.88275 39.730609 44.442578 39.498906 45.017578 39.378906 C 45.042578 39.373906 45.067703 39.371094 45.095703 39.371094 C 45.328703 39.371094 45.644688 39.544609 45.804688 39.724609 C 46.062688 40.012609 45.912484 40.386328 45.646484 40.611328 C 45.244484 40.951328 44.822516 41.296344 44.353516 41.527344 C 41.251516 43.051344 37.976859 43.878594 34.505859 43.933594 C 33.793859 43.880594 33.077141 43.852531 32.369141 43.769531 C 30.564141 43.559531 29.482094 42.455125 28.871094 40.828125 C 28.288094 39.275125 28.952609 38.051406 29.974609 36.941406 C 29.997609 36.916406 30.020922 36.894094 30.044922 36.871094 C 31.087922 35.851094 31.941234 34.687438 32.615234 33.398438 C 33.044234 32.576437 33.395547 31.714766 33.810547 30.884766 C 33.985547 30.534766 34.264594 30.246094 34.683594 30.246094 C 34.704594 30.246094 34.727047 30.247047 34.748047 30.248047 C 35.225047 30.281047 35.466187 30.639969 35.617188 31.042969 C 36.026187 32.136969 35.753 33.106219 35 33.949219 C 34.692 34.294219 34.262141 34.53825 33.994141 34.90625 C 33.816141 35.15125 33.693156 35.582703 33.785156 35.845703 C 33.890156 36.144703 34.177187 36.251953 34.492188 36.251953 C 34.583188 36.251953 34.677531 36.242562 34.769531 36.226562 C 35.237531 36.145562 35.502047 35.832172 35.748047 35.451172 C 36.854047 33.736172 37.947047 32.012703 39.123047 30.345703 C 39.414047 29.932703 39.963172 29.647406 40.451172 29.441406 C 40.558172 29.396406 40.660859 29.376953 40.755859 29.376953 z M 9.0332031 29.378906 C 9.1282031 29.378906 9.2308906 29.398359 9.3378906 29.443359 C 9.8258906 29.648359 10.373062 29.934656 10.664062 30.347656 C 11.840063 32.014656 12.935016 33.738125 14.041016 35.453125 C 14.287016 35.834125 14.550578 36.146516 15.017578 36.228516 C 15.109578 36.244516 15.203922 36.253906 15.294922 36.253906 C 15.609922 36.253906 15.896953 36.145656 16.001953 35.847656 C 16.094953 35.584656 15.972922 35.153203 15.794922 34.908203 C 15.527922 34.540203 15.097063 34.296172 14.789062 33.951172 C 14.036062 33.108172 13.762875 32.139922 14.171875 31.044922 C 14.322875 30.641922 14.564016 30.284953 15.041016 30.251953 C 15.063016 30.250953 15.083469 30.248047 15.105469 30.248047 C 15.523469 30.248047 15.803516 30.536719 15.978516 30.886719 C 16.393516 31.716719 16.744828 32.579391 17.173828 33.400391 C 17.847828 34.689391 18.701141 35.852047 19.744141 36.873047 C 19.768141 36.896047 19.791453 36.919359 19.814453 36.943359 C 20.835453 38.054359 21.500969 39.277078 20.917969 40.830078 C 20.307969 42.455078 19.224922 43.559531 17.419922 43.769531 C 16.710922 43.851531 15.995203 43.880594 15.283203 43.933594 C 11.812203 43.878594 8.5375469 43.051344 5.4355469 41.527344 C 4.9665469 41.297344 4.5445781 40.952328 4.1425781 40.611328 C 3.8765781 40.386328 3.726375 40.012609 3.984375 39.724609 C 4.145375 39.545609 4.4603594 39.371094 4.6933594 39.371094 C 4.7213594 39.371094 4.7464844 39.372906 4.7714844 39.378906 C 5.3464844 39.498906 5.9053125 39.729609 6.4453125 39.974609 C 7.0793125 40.261609 7.6846406 40.615687 8.3066406 40.929688 C 8.4976406 41.025687 8.7071562 41.137625 8.9101562 41.140625 L 8.9257812 41.140625 C 9.1297813 41.140625 9.4320469 41.072453 9.4980469 40.939453 C 9.5850469 40.763453 9.5606406 40.399391 9.4316406 40.275391 C 9.1396406 39.995391 8.7763438 39.762562 8.4023438 39.601562 C 7.3963437 39.170563 6.3595156 38.809953 5.3535156 38.376953 C 4.9475156 38.201953 4.56375 37.947922 4.21875 37.669922 C 3.77375 37.310922 3.6733906 36.822687 3.9003906 36.429688 C 4.0653906 36.144688 4.3047344 36.046875 4.5527344 36.046875 C 4.7057344 36.046875 4.8608594 36.084625 5.0058594 36.140625 C 5.8698594 36.472625 6.7199688 36.853344 7.5429688 37.277344 C 8.4419687 37.741344 9.2965 38.288578 10.1875 38.767578 C 10.1925 38.770578 10.199078 38.770484 10.205078 38.771484 C 10.290078 38.820484 10.383281 38.857422 10.488281 38.857422 C 10.808281 38.857422 11.068359 38.597344 11.068359 38.277344 C 11.068359 38.178344 11.037141 38.090766 10.994141 38.009766 C 10.995141 38.006766 11 38 11 38 C 11 38 10.986563 37.990375 10.976562 37.984375 C 10.889563 37.840375 7.6028437 35.732953 6.8398438 35.251953 C 6.2498438 34.879953 5.6645156 34.499891 5.1035156 34.087891 C 4.8695156 33.915891 4.6576719 33.676828 4.5136719 33.423828 C 4.1976719 32.869828 4.5631094 32.193359 5.1621094 32.193359 C 5.1991094 32.193359 5.2383438 32.196172 5.2773438 32.201172 C 5.7883438 32.272172 6.3418125 32.433609 6.7578125 32.724609 C 8.1578125 33.702609 9.5031406 34.756203 10.869141 35.783203 C 11.161141 36.003203 12.023875 36.894531 12.296875 36.894531 C 12.616875 36.894531 12.875 36.636406 12.875 36.316406 C 12.875 36.062406 11.158953 34.325656 10.501953 33.597656 C 9.9009531 32.931656 9.3045156 32.261219 8.7285156 31.574219 C 8.6615156 31.494219 8.6134531 31.408266 8.5644531 31.322266 C 8.5024531 31.183266 8.4544844 31.040391 8.3964844 30.900391 C 8.3384844 30.650391 8.3322344 30.386234 8.3652344 30.115234 C 8.4172344 29.675234 8.6762031 29.378906 9.0332031 29.378906 z"/></svg>